<?xml version="1.0" encoding="UTF-8"?>
<svg xmlns="http://www.w3.org/2000/svg" width="256" height="256" viewBox="0 0 256 256" role="img" aria-label="SGL TT favicon">
  <defs>
    <linearGradient id="g" x1="0" y1="0" x2="1" y2="1">
      <stop offset="0" stop-color="#ff6a00"/>
      <stop offset="1" stop-color="#ff9a3d"/>
    </linearGradient>
    <filter id="s" x="-20%" y="-20%" width="140%" height="140%">
      <feDropShadow dx="0" dy="10" stdDeviation="12" flood-color="#000" flood-opacity="0.45"/>
    </filter>
  </defs>

  <!-- Background -->
  <rect x="24" y="24" width="208" height="208" rx="56" fill="#0b0f14"/>

  <!-- Accent ring -->
  <rect x="32" y="32" width="192" height="192" rx="52" fill="none" stroke="url(#g)" stroke-width="10" opacity="0.9"/>

  <!-- Monogram -->
  <g filter="url(#s)">
    <path d="M74 112c0-22 18-40 40-40h60c8 0 14 6 14 14s-6 14-14 14h-60c-6 0-12 6-12 12s6 12 12 12h32c22 0 40 18 40 40s-18 40-40 40H86c-8 0-14-6-14-14s6-14 14-14h60c6 0 12-6 12-12s-6-12-12-12h-32c-22 0-40-18-40-40z"
          fill="url(#g)"/>
  </g>

  <!-- Tiny "TT" hint -->
  <g opacity="0.95">
    <rect x="64" y="176" width="128" height="10" rx="5" fill="rgba(255,255,255,0.12)"/>
    <text x="128" y="170" text-anchor="middle" font-family="system-ui,Segoe UI,Arial" font-size="26" font-weight="900" fill="rgba(229,231,235,0.85)">
      TT
    </text>
  </g>
</svg>
